<svg width="81" height="80" viewBox="0 0 81 80" fill="none" xmlns="http://www.w3.org/2000/svg">
<path d="M44.3893 67.9688C43.7105 67.9688 43.0635 67.6928 42.5923 67.207L17.7193 41.4868C11.1715 34.7118 11.2643 23.7818 17.9243 17.119C24.001 11.0423 33.764 10.349 40.6343 15.5053L44.3893 18.3203L48.1393 15.5053C55.0193 10.3515 64.7798 11.0448 70.8518 17.119C77.5143 23.7815 77.607 34.7118 71.0568 41.4868L46.1863 67.207C45.715 67.6928 45.068 67.9688 44.3893 67.9688ZM30.2268 17.0483C27.0285 17.0483 23.845 18.269 21.4598 20.6543C16.716 25.4003 16.6503 33.186 21.3133 38.0103L44.3895 61.8725L67.4633 38.0103C72.1288 33.186 72.0628 25.4005 67.3168 20.6543C62.9905 16.3258 56.035 15.8373 51.14 19.5043L45.891 23.4448C45.0023 24.1138 43.7793 24.1138 42.8905 23.4448L37.6365 19.5043C35.4393 17.8563 32.827 17.0483 30.2268 17.0483Z" fill="#2AA7FF"/>
<path d="M43.442 52.5001C43.3835 52.5001 43.3248 52.4976 43.2638 52.4928C42.2555 52.4221 41.3913 51.7506 41.0713 50.7911L35.7295 34.7656L33.2638 40.9276C32.883 41.8773 31.965 42.4998 30.942 42.4998H8.44203C7.06028 42.4998 5.94203 41.3816 5.94203 39.9998C5.94203 38.6181 7.06028 37.4998 8.44203 37.4998H29.25L33.62 26.5721C34.0105 25.5981 34.9945 24.9926 36.015 24.9998C37.0648 25.0316 37.9828 25.7151 38.3123 26.7088L43.9055 43.4838L46.2053 38.8818C46.63 38.0346 47.4943 37.5001 48.4415 37.5001H55.9415C57.3233 37.5001 58.4415 38.6183 58.4415 40.0001C58.4415 41.3818 57.3233 42.5001 55.9415 42.5001H49.987L45.678 51.1183C45.2533 51.9703 44.3843 52.5001 43.442 52.5001Z" fill="#2AA7FF"/>
</svg>
