<svg width="81" height="80" viewBox="0 0 81 80" fill="none" xmlns="http://www.w3.org/2000/svg">
<path d="M45.942 50H55.942V72.5H60.942V47.5C60.942 46.1183 59.8238 45 58.442 45H43.442C42.0603 45 40.942 46.1183 40.942 47.5V72.5H45.942V50Z" fill="#2AA7FF"/>
<path d="M68.442 25H55.942V30H65.942V70H15.942V30H25.942V25H13.442C12.0603 25 10.942 26.1183 10.942 27.5V72.5C10.942 73.8817 12.0603 75 13.442 75H68.442C69.8238 75 70.942 73.8817 70.942 72.5V27.5C70.942 26.1183 69.8238 25 68.442 25Z" fill="#2AA7FF"/>
<path d="M25.942 25H10.942V20H25.942V15H8.44203C7.06028 15 5.94203 16.1183 5.94203 17.5V27.5C5.94203 28.8818 7.06028 30 8.44203 30H25.942V25Z" fill="#2AA7FF"/>
<path d="M73.442 15H55.942V20H70.942V25H55.942V30H73.442C74.8238 30 75.942 28.8818 75.942 27.5V17.5C75.942 16.1183 74.8238 15 73.442 15Z" fill="#2AA7FF"/>
<path d="M55.942 40H25.942C24.5603 40 23.442 38.8817 23.442 37.5V7.5C23.442 6.11825 24.5603 5 25.942 5H55.942C57.3238 5 58.442 6.11825 58.442 7.5V37.5C58.442 38.8817 57.3238 40 55.942 40ZM28.442 35H53.442V10H28.442V35Z" fill="#2AA7FF"/>
<path d="M45.942 20H43.442V17.5C43.442 16.1183 42.3238 15 40.942 15C39.5603 15 38.442 16.1183 38.442 17.5V20H35.942C34.5603 20 33.442 21.1182 33.442 22.5C33.442 23.8818 34.5603 25 35.942 25H38.442V27.5C38.442 28.8818 39.5603 30 40.942 30C42.3238 30 43.442 28.8818 43.442 27.5V25H45.942C47.3238 25 48.442 23.8818 48.442 22.5C48.442 21.1182 47.3238 20 45.942 20Z" fill="#2AA7FF"/>
<path d="M33.442 60H23.442C22.0603 60 20.942 58.8818 20.942 57.5V52.5C20.942 48.3643 24.3063 45 28.442 45C32.5778 45 35.942 48.3643 35.942 52.5V57.5C35.942 58.8818 34.8238 60 33.442 60ZM25.942 55H30.942V52.5C30.942 51.1205 29.8215 50 28.442 50C27.0625 50 25.942 51.1205 25.942 52.5V55Z" fill="#2AA7FF"/>
</svg>
