<svg width="82" height="80" viewBox="0 0 82 80" fill="none" xmlns="http://www.w3.org/2000/svg">
<path d="M15.9731 72.5C15.9731 73.8818 17.1054 75 18.5044 75C19.9034 75 21.0356 73.8818 21.0356 72.5V67.5H15.9731V72.5Z" fill="#2AA7FF"/>
<path d="M61.5356 72.5C61.5356 73.8818 62.6679 75 64.0669 75C65.4659 75 66.5981 73.8818 66.5981 72.5V67.5H61.5356V72.5Z" fill="#2AA7FF"/>
<path d="M74.1919 45H8.37939V50H74.1919V45Z" fill="#2AA7FF"/>
<path d="M69.1294 70H13.4419C9.25445 70 5.84814 66.6357 5.84814 62.5V12.5C5.84814 8.36425 9.25445 5 13.4419 5H69.1294C73.3168 5 76.7231 8.36425 76.7231 12.5V62.5C76.7231 66.6357 73.3168 70 69.1294 70ZM13.4419 10C12.0452 10 10.9106 11.1205 10.9106 12.5V62.5C10.9106 63.8795 12.0452 65 13.4419 65H69.1294C70.5261 65 71.6606 63.8795 71.6606 62.5V12.5C71.6606 11.1205 70.5261 10 69.1294 10H13.4419Z" fill="#2AA7FF"/>
<path d="M64.0669 60H53.9419C52.5429 60 51.4106 58.8817 51.4106 57.5C51.4106 56.1183 52.5429 55 53.9419 55H64.0669C65.4659 55 66.5981 56.1183 66.5981 57.5C66.5981 58.8817 65.4659 60 64.0669 60Z" fill="#2AA7FF"/>
<path d="M18.5044 60C19.9024 60 21.0356 58.8807 21.0356 57.5C21.0356 56.1193 19.9024 55 18.5044 55C17.1064 55 15.9731 56.1193 15.9731 57.5C15.9731 58.8807 17.1064 60 18.5044 60Z" fill="#2AA7FF"/>
<path d="M28.6294 60C30.0274 60 31.1606 58.8807 31.1606 57.5C31.1606 56.1193 30.0274 55 28.6294 55C27.2314 55 26.0981 56.1193 26.0981 57.5C26.0981 58.8807 27.2314 60 28.6294 60Z" fill="#2AA7FF"/>
<path d="M53.9419 39.9999C53.8505 39.9999 53.7589 39.9949 53.665 39.9851C52.612 39.8704 51.7443 39.1209 51.4871 38.1051L48.323 25.6076L46.1674 30.9274C45.851 31.7086 45.159 32.2799 44.3259 32.4484C43.483 32.6169 42.6277 32.3604 42.027 31.7671L39.6788 29.4479L36.0427 38.4274C35.6323 39.4356 34.6064 40.0436 33.5213 39.9949C32.4263 39.9216 31.5016 39.1574 31.2373 38.1051L27.8336 24.6626L25.8313 28.6176C25.4013 29.4649 24.5262 29.9994 23.5671 29.9994H18.5046C17.1056 29.9994 15.9734 28.8811 15.9734 27.4994C15.9734 26.1176 17.1056 24.9994 18.5046 24.9994H22.0023L26.3652 16.3811C26.8398 15.4461 27.831 14.8991 28.9063 15.0139C29.9593 15.1286 30.827 15.8781 31.0842 16.8939L34.2483 29.3914L36.4039 24.0716C36.7203 23.2904 37.4123 22.7191 38.2453 22.5506C39.0908 22.3796 39.9436 22.6386 40.5442 23.2319L42.8925 25.5511L46.5286 16.5716C46.9389 15.5634 47.9674 14.9626 49.05 15.0041C50.145 15.0774 51.0697 15.8416 51.3339 16.8939L54.7377 30.3364L56.7399 26.3814C57.17 25.5341 58.045 24.9996 59.0041 24.9996H64.0666C65.4657 24.9996 66.5979 26.1179 66.5979 27.4996C66.5979 28.8814 65.4657 29.9996 64.0666 29.9996H60.569L56.2061 38.6179C55.7735 39.4699 54.8934 39.9999 53.9419 39.9999Z" fill="#2AA7FF"/>
</svg>
