<svg width="81" height="80" viewBox="0 0 81 80" fill="none" xmlns="http://www.w3.org/2000/svg">
<path d="M55.5983 75H35.5983C28.7063 75 23.0983 69.392 23.0983 62.5V47.5H28.0983V62.5C28.0983 66.6357 31.4626 70 35.5983 70H55.5983C59.7341 70 63.0983 66.6357 63.0983 62.5V45H68.0983V62.5C68.0983 69.392 62.4903 75 55.5983 75Z" fill="#2AA7FF"/>
<path d="M25.5983 40C14.6876 40 6.66634 32.1045 6.33084 31.7675L9.86609 28.2323C9.93084 28.2958 16.7973 34.9998 25.5986 34.9998C34.3998 34.9998 41.2663 28.2958 41.3346 28.2285L44.8661 31.7673C44.5303 32.1043 36.5088 40 25.5983 40Z" fill="#2AA7FF"/>
<path d="M25.5983 50C14.5706 50 5.59834 41.0277 5.59834 30V16.4037C5.59834 12.9552 7.93484 9.96321 11.2796 9.12721L17.4918 7.57446L18.7053 12.4255L12.4931 13.9782C11.3773 14.2565 10.5986 15.254 10.5986 16.4037V30C10.5986 38.2715 17.3271 45 25.5986 45C33.8701 45 40.5986 38.2715 40.5986 30V16.4037C40.5986 15.2537 39.8198 14.2565 38.7041 13.9782L32.4918 12.4255L33.7053 7.57446L39.9176 9.12721C43.2623 9.96346 45.5988 12.9552 45.5988 16.4037V30C45.5988 41.0277 36.6261 50 25.5983 50Z" fill="#2AA7FF"/>
<path d="M18.0983 15C16.7178 15 15.5983 13.8805 15.5983 12.5V7.5C15.5983 6.1195 16.7178 5 18.0983 5C19.4788 5 20.5983 6.1195 20.5983 7.5V12.5C20.5983 13.8805 19.4788 15 18.0983 15Z" fill="#2AA7FF"/>
<path d="M33.0983 15C31.7178 15 30.5983 13.8805 30.5983 12.5V7.5C30.5983 6.1195 31.7178 5 33.0983 5C34.4788 5 35.5983 6.1195 35.5983 7.5V12.5C35.5983 13.8805 34.4788 15 33.0983 15Z" fill="#2AA7FF"/>
<path d="M65.5983 47.5C60.0843 47.5 55.5983 43.014 55.5983 37.5C55.5983 31.986 60.0843 27.5 65.5983 27.5C71.1123 27.5 75.5983 31.986 75.5983 37.5C75.5983 43.014 71.1123 47.5 65.5983 47.5ZM65.5983 32.5C62.8408 32.5 60.5983 34.7425 60.5983 37.5C60.5983 40.2575 62.8408 42.5 65.5983 42.5C68.3558 42.5 70.5983 40.2575 70.5983 37.5C70.5983 34.7425 68.3558 32.5 65.5983 32.5Z" fill="#2AA7FF"/>
</svg>
