<svg width="81" height="80" viewBox="0 0 81 80" fill="none" xmlns="http://www.w3.org/2000/svg">
<path d="M40.5996 75C40.3566 75 40.1138 74.9658 39.8793 74.895C23.8613 70.0878 13.0983 55.625 13.0983 38.9038V15C13.0983 13.6205 14.2178 12.5025 15.5958 12.5C15.7386 12.5 29.9048 12.395 39.0981 5.50053C39.9868 4.83153 41.2098 4.83153 42.0986 5.50053C51.3246 12.4195 65.4568 12.5 65.5983 12.5C66.9788 12.5 68.0983 13.6183 68.0983 15V38.9038C68.0983 55.6225 57.3378 70.0878 41.3211 74.895C41.0866 74.9658 40.8438 75 40.5996 75ZM18.0983 17.395V38.9038C18.0983 53.147 27.1083 65.5028 40.5971 69.8828C54.0883 65.5028 63.0983 53.1493 63.0983 38.9038V17.395C58.5108 17.0728 48.5391 15.7763 40.5983 10.5543C32.6576 15.7765 22.6858 17.0728 18.0983 17.395Z" fill="#2AA7FF"/>
<path d="M40.5983 55C30.9486 55 23.0983 47.1485 23.0983 37.5C23.0983 27.8515 30.9486 20 40.5983 20C50.2481 20 58.0983 27.8515 58.0983 37.5C58.0983 47.1485 50.2481 55 40.5983 55ZM40.5983 25C33.7063 25 28.0983 30.608 28.0983 37.5C28.0983 44.392 33.7063 50 40.5983 50C47.4903 50 53.0983 44.392 53.0983 37.5C53.0983 30.608 47.4903 25 40.5983 25Z" fill="#2AA7FF"/>
<path d="M45.5983 35H43.0983V32.5C43.0983 31.1183 41.9788 30 40.5983 30C39.2178 30 38.0983 31.1183 38.0983 32.5V35H35.5983C34.2178 35 33.0983 36.1182 33.0983 37.5C33.0983 38.8818 34.2178 40 35.5983 40H38.0983V42.5C38.0983 43.8818 39.2178 45 40.5983 45C41.9788 45 43.0983 43.8818 43.0983 42.5V40H45.5983C46.9788 40 48.0983 38.8818 48.0983 37.5C48.0983 36.1182 46.9788 35 45.5983 35Z" fill="#2AA7FF"/>
</svg>
