<svg width="82" height="80" viewBox="0 0 82 80" fill="none" xmlns="http://www.w3.org/2000/svg">
<path d="M74.1919 75H8.37939C6.98164 75 5.84814 73.8805 5.84814 72.5V7.5C5.84814 6.1195 6.98164 5 8.37939 5H74.1919C75.5897 5 76.7231 6.1195 76.7231 7.5V72.5C76.7231 73.8805 75.5897 75 74.1919 75ZM10.9106 70H71.6606V10H10.9106V70Z" fill="#2AA7FF"/>
<path d="M18.5044 20C19.9024 20 21.0356 18.8807 21.0356 17.5C21.0356 16.1193 19.9024 15 18.5044 15C17.1064 15 15.9731 16.1193 15.9731 17.5C15.9731 18.8807 17.1064 20 18.5044 20Z" fill="#2AA7FF"/>
<path d="M30.9938 65.0973C28.7258 65.0973 26.4566 64.244 24.73 62.5388C23.614 61.4365 22.8328 60.0875 22.4372 58.6155C20.9466 58.225 19.5809 57.4535 18.4649 56.351C15.0105 52.9403 15.0105 47.3885 18.4649 43.978C21.1161 41.3573 25.0439 40.7323 28.3241 42.1933L43.5066 27.1983C42.0271 23.9598 42.6599 20.0816 45.3111 17.4608C48.7706 14.0491 54.3892 14.0513 57.8413 17.4608C58.9561 18.5618 59.7372 19.9108 60.1341 21.3841C61.6248 21.7746 62.9904 22.5461 64.1064 23.6486C67.5608 27.0593 67.5608 32.611 64.1064 36.0215C61.4516 38.64 57.5262 39.2651 54.2472 37.8063L39.0647 52.8013C40.543 56.0398 39.9102 59.9193 37.2577 62.5388C35.5311 64.244 33.2618 65.0973 30.9938 65.0973ZM24.6966 46.4278C23.7314 46.4278 22.7734 46.7928 22.0441 47.513C20.5646 48.9755 20.5646 51.3533 22.0441 52.8158C22.7498 53.5116 23.6904 53.8998 24.6928 53.9083C26.0746 53.9205 27.1906 55.0228 27.203 56.3876C27.2116 57.3776 27.6047 58.3066 28.3092 59.0036C29.79 60.4661 32.1975 60.4661 33.6782 59.0036C35.0489 57.6486 35.1491 55.4988 33.9106 54.0011C33.0887 53.0063 33.1616 51.5583 34.0812 50.6515L52.0705 32.8843C52.9902 31.9748 54.4547 31.9053 55.4619 32.7158C56.9809 33.9451 59.1598 33.8401 60.5269 32.4863C62.0065 31.0238 62.0065 28.6461 60.5269 27.1836C59.8212 26.4878 58.8806 26.0996 57.8782 26.0911C56.4977 26.0788 55.3804 24.9778 55.368 23.6143C55.3594 22.6218 54.9663 21.6918 54.2619 20.9958C52.7811 19.5333 50.3723 19.5346 48.8916 20.9971C47.5209 22.3508 47.4206 24.5018 48.6604 25.9983C49.4823 26.992 49.4094 28.4398 48.4898 29.3478L30.5005 47.1151C29.5796 48.0246 28.1125 48.0916 27.1091 47.2836C26.3996 46.7098 25.5443 46.4278 24.6966 46.4278Z" fill="#2AA7FF"/>
<path d="M64.0669 65H53.9419C52.5441 65 51.4106 63.8805 51.4106 62.5C51.4106 61.1195 52.5441 60 53.9419 60H64.0669C65.4647 60 66.5981 61.1195 66.5981 62.5C66.5981 63.8805 65.4647 65 64.0669 65Z" fill="#2AA7FF"/>
<path d="M64.0669 55H59.0044C57.6066 55 56.4731 53.8805 56.4731 52.5C56.4731 51.1195 57.6066 50 59.0044 50H64.0669C65.4647 50 66.5981 51.1195 66.5981 52.5C66.5981 53.8805 65.4647 55 64.0669 55Z" fill="#2AA7FF"/>
</svg>
